<svg xmlns="http://www.w3.org/2000/svg" xmlns:xlink="http://www.w3.org/1999/xlink" width="1600" zoomAndPan="magnify" viewBox="0 0 1200 671.999997" height="896" preserveAspectRatio="xMidYMid meet" version="1.0"><defs><g/><clipPath id="4a48cad1a2"><rect x="0" width="52" y="0" height="97"/></clipPath></defs><g transform="matrix(1, 0, 0, 1, 577, 263)"><g clip-path="url(#4a48cad1a2)"><g fill="#000000" fill-opacity="1"><g transform="translate(0.45732, 67.874243)"><g><path d="M 42.96875 -32.09375 L 41.015625 -32.09375 C 40.421875 -36.101562 39.144531 -38.972656 37.1875 -40.703125 C 35.226562 -42.441406 32.175781 -43.378906 28.03125 -43.515625 L 28.03125 -7.90625 C 28.03125 -5.332031 28.398438 -3.707031 29.140625 -3.03125 C 29.890625 -2.363281 31.726562 -1.914062 34.65625 -1.6875 L 34.65625 0 L 10.546875 0 L 10.546875 -1.6875 C 13.421875 -1.914062 15.226562 -2.378906 15.96875 -3.078125 C 16.71875 -3.773438 17.09375 -5.382812 17.09375 -7.90625 L 17.09375 -43.515625 C 12.90625 -43.378906 9.832031 -42.441406 7.875 -40.703125 C 5.914062 -38.972656 4.640625 -36.101562 4.046875 -32.09375 L 2.09375 -32.09375 L 2.296875 -45.671875 L 42.828125 -45.671875 Z M 42.96875 -32.09375 "/></g></g></g></g></g></svg>