<svg xmlns="http://www.w3.org/2000/svg" xmlns:xlink="http://www.w3.org/1999/xlink" width="100" zoomAndPan="magnify" viewBox="0 0 75 74.999997" height="100" preserveAspectRatio="xMidYMid meet" version="1.0"><defs><g/><clipPath id="c81792c68d"><path d="M 16.808594 32.585938 L 58.058594 32.585938 L 58.058594 37.835938 L 16.808594 37.835938 Z M 16.808594 32.585938 " clip-rule="nonzero"/></clipPath><clipPath id="667347ffec"><path d="M 0.679688 3 L 6 3 L 6 9 L 0.679688 9 Z M 0.679688 3 " clip-rule="nonzero"/></clipPath><clipPath id="246e8a3e2b"><path d="M 30 2 L 36.679688 2 L 36.679688 9 L 30 9 Z M 30 2 " clip-rule="nonzero"/></clipPath><clipPath id="a3b8160980"><rect x="0" width="37" y="0" height="12"/></clipPath></defs><g clip-path="url(#c81792c68d)"><path fill="#000000" d="M 57.300781 32.84375 C 55.785156 32.679688 54.269531 32.59375 52.746094 32.59375 L 39.332031 32.59375 L 39.332031 33.265625 C 39.292969 33.503906 39.21875 33.730469 39.105469 33.945312 C 38.996094 34.15625 38.851562 34.339844 38.679688 34.496094 C 38.503906 34.65625 38.3125 34.777344 38.097656 34.859375 C 37.886719 34.945312 37.664062 34.984375 37.4375 34.984375 C 37.210938 34.984375 36.992188 34.945312 36.777344 34.859375 C 36.566406 34.777344 36.371094 34.65625 36.199219 34.496094 C 36.023438 34.339844 35.882812 34.15625 35.769531 33.945312 C 35.660156 33.730469 35.582031 33.503906 35.546875 33.265625 L 35.546875 32.59375 L 22.132812 32.59375 C 20.609375 32.59375 19.089844 32.679688 17.578125 32.84375 L 16.808594 32.929688 L 17.578125 33.015625 C 19.089844 33.179688 20.609375 33.261719 22.132812 33.261719 L 27.53125 33.261719 L 27.53125 33.789062 L 28.039062 33.789062 C 28.082031 33.945312 28.136719 34.09375 28.214844 34.234375 L 27.851562 34.621094 L 28.542969 35.363281 L 28.90625 34.976562 C 29.035156 35.058594 29.175781 35.121094 29.320312 35.164062 L 29.320312 35.710938 L 30.300781 35.710938 L 30.300781 35.164062 C 30.449219 35.121094 30.585938 35.058594 30.71875 34.976562 L 31.078125 35.363281 L 31.769531 34.621094 L 31.410156 34.234375 C 31.484375 34.09375 31.542969 33.945312 31.582031 33.789062 L 32.09375 33.789062 L 32.09375 33.261719 L 32.871094 33.261719 L 32.871094 33.980469 L 33.890625 33.980469 C 33.972656 34.292969 34.085938 34.589844 34.238281 34.871094 L 33.515625 35.648438 L 34.898438 37.136719 L 35.621094 36.363281 C 35.882812 36.523438 36.160156 36.648438 36.453125 36.734375 L 36.453125 37.828125 L 38.414062 37.828125 L 38.414062 36.734375 C 38.707031 36.644531 38.984375 36.523438 39.246094 36.359375 L 39.96875 37.136719 L 41.355469 35.648438 L 40.632812 34.875 C 40.78125 34.589844 40.898438 34.292969 40.980469 33.980469 L 42 33.980469 L 42 33.265625 L 42.777344 33.265625 L 42.777344 33.792969 L 43.285156 33.792969 C 43.328125 33.949219 43.386719 34.097656 43.460938 34.238281 L 43.097656 34.625 L 43.792969 35.367188 L 44.152344 34.980469 C 44.285156 35.0625 44.421875 35.121094 44.566406 35.167969 L 44.566406 35.714844 L 45.550781 35.714844 L 45.550781 35.167969 C 45.695312 35.121094 45.832031 35.0625 45.964844 34.980469 L 46.324219 35.367188 L 47.019531 34.625 L 46.65625 34.238281 C 46.730469 34.097656 46.789062 33.949219 46.832031 33.792969 L 47.339844 33.792969 L 47.339844 33.265625 L 52.738281 33.265625 C 54.261719 33.265625 55.777344 33.183594 57.292969 33.019531 L 58.0625 32.933594 Z M 29.8125 34.292969 C 29.683594 34.292969 29.5625 34.269531 29.445312 34.214844 C 29.328125 34.164062 29.222656 34.089844 29.132812 33.992188 C 29.042969 33.894531 28.976562 33.785156 28.925781 33.660156 C 28.878906 33.53125 28.855469 33.402344 28.855469 33.265625 L 30.773438 33.265625 C 30.773438 33.402344 30.746094 33.53125 30.699219 33.660156 C 30.648438 33.785156 30.582031 33.894531 30.492188 33.992188 C 30.402344 34.089844 30.296875 34.164062 30.179688 34.214844 C 30.0625 34.269531 29.941406 34.292969 29.8125 34.292969 Z M 45.066406 34.292969 C 44.9375 34.292969 44.816406 34.269531 44.699219 34.214844 C 44.582031 34.164062 44.476562 34.089844 44.386719 33.992188 C 44.296875 33.894531 44.226562 33.785156 44.179688 33.660156 C 44.128906 33.53125 44.105469 33.402344 44.105469 33.265625 L 46.023438 33.265625 C 46.023438 33.402344 46 33.53125 45.949219 33.660156 C 45.902344 33.785156 45.832031 33.894531 45.742188 33.992188 C 45.652344 34.089844 45.550781 34.164062 45.433594 34.214844 C 45.316406 34.269531 45.191406 34.292969 45.066406 34.292969 Z M 45.066406 34.292969 " fill-opacity="1" fill-rule="nonzero"/></g><g transform="matrix(1, 0, 0, 1, 19, 22)"><g clip-path="url(#a3b8160980)"><g clip-path="url(#667347ffec)"><g fill="#000000" fill-opacity="1"><g transform="translate(0.687267, 8.19786)"><g><path d="M 4.796875 -3.578125 L 4.578125 -3.578125 C 4.515625 -4.023438 4.375 -4.347656 4.15625 -4.546875 C 3.9375 -4.742188 3.59375 -4.847656 3.125 -4.859375 L 3.125 -0.890625 C 3.125 -0.597656 3.164062 -0.410156 3.25 -0.328125 C 3.332031 -0.253906 3.539062 -0.207031 3.875 -0.1875 L 3.875 0 L 1.171875 0 L 1.171875 -0.1875 C 1.492188 -0.207031 1.695312 -0.253906 1.78125 -0.328125 C 1.863281 -0.410156 1.90625 -0.597656 1.90625 -0.890625 L 1.90625 -4.859375 C 1.4375 -4.847656 1.09375 -4.742188 0.875 -4.546875 C 0.65625 -4.347656 0.515625 -4.023438 0.453125 -3.578125 L 0.234375 -3.578125 L 0.25 -5.109375 L 4.78125 -5.109375 Z M 4.796875 -3.578125 "/></g></g></g></g><g fill="#000000" fill-opacity="1"><g transform="translate(5.716753, 8.19786)"><g><path d="M 4.84375 -1.5625 L 4.53125 0 L 0.125 0 L 0.125 -0.1875 C 0.40625 -0.21875 0.582031 -0.265625 0.65625 -0.328125 C 0.738281 -0.398438 0.78125 -0.53125 0.78125 -0.71875 L 0.78125 -4.375 C 0.78125 -4.5625 0.734375 -4.691406 0.640625 -4.765625 C 0.554688 -4.847656 0.382812 -4.894531 0.125 -4.90625 L 0.125 -5.109375 L 4.46875 -5.109375 L 4.46875 -3.578125 L 4.28125 -3.578125 C 4.1875 -4.085938 4.019531 -4.425781 3.78125 -4.59375 C 3.539062 -4.757812 3.113281 -4.84375 2.5 -4.84375 C 2.300781 -4.84375 2.164062 -4.816406 2.09375 -4.765625 C 2.03125 -4.722656 2 -4.628906 2 -4.484375 L 2 -2.734375 C 2.414062 -2.734375 2.707031 -2.8125 2.875 -2.96875 C 3.050781 -3.132812 3.171875 -3.429688 3.234375 -3.859375 L 3.421875 -3.859375 L 3.421875 -1.3125 L 3.234375 -1.3125 C 3.179688 -1.75 3.066406 -2.050781 2.890625 -2.21875 C 2.710938 -2.394531 2.414062 -2.484375 2 -2.484375 L 2 -0.65625 C 2 -0.5 2.039062 -0.390625 2.125 -0.328125 C 2.21875 -0.265625 2.390625 -0.234375 2.640625 -0.234375 C 3.203125 -0.234375 3.65625 -0.375 4 -0.65625 C 4.226562 -0.84375 4.4375 -1.144531 4.625 -1.5625 Z M 4.84375 -1.5625 "/></g></g></g><g fill="#000000" fill-opacity="1"><g transform="translate(10.746239, 8.19786)"><g><path d="M 5.796875 0 L 3.265625 0 L 3.265625 -0.1875 C 3.335938 -0.195312 3.421875 -0.203125 3.515625 -0.203125 C 3.742188 -0.210938 3.859375 -0.257812 3.859375 -0.34375 C 3.859375 -0.414062 3.800781 -0.523438 3.6875 -0.671875 L 2.3125 -2.390625 L 2.109375 -2.203125 L 2.109375 -0.71875 C 2.109375 -0.53125 2.148438 -0.398438 2.234375 -0.328125 C 2.316406 -0.265625 2.492188 -0.21875 2.765625 -0.1875 L 2.765625 0 L 0.21875 0 L 0.21875 -0.1875 C 0.5 -0.21875 0.679688 -0.265625 0.765625 -0.328125 C 0.847656 -0.398438 0.890625 -0.53125 0.890625 -0.71875 L 0.890625 -4.375 C 0.890625 -4.570312 0.84375 -4.707031 0.75 -4.78125 C 0.664062 -4.851562 0.488281 -4.894531 0.21875 -4.90625 L 0.21875 -5.109375 L 2.78125 -5.109375 L 2.78125 -4.90625 C 2.5 -4.894531 2.316406 -4.84375 2.234375 -4.75 C 2.148438 -4.664062 2.109375 -4.488281 2.109375 -4.21875 L 2.109375 -2.609375 L 3.75 -4.25 C 3.863281 -4.363281 3.9375 -4.445312 3.96875 -4.5 C 4 -4.550781 4.015625 -4.601562 4.015625 -4.65625 C 4.015625 -4.738281 3.984375 -4.796875 3.921875 -4.828125 C 3.867188 -4.867188 3.773438 -4.890625 3.640625 -4.890625 C 3.609375 -4.890625 3.519531 -4.894531 3.375 -4.90625 L 3.375 -5.109375 L 5.546875 -5.109375 L 5.546875 -4.90625 C 5.179688 -4.882812 4.863281 -4.773438 4.59375 -4.578125 C 4.332031 -4.390625 3.84375 -3.929688 3.125 -3.203125 L 5.4375 -0.34375 C 5.519531 -0.25 5.640625 -0.195312 5.796875 -0.1875 Z M 5.796875 0 "/></g></g></g><g fill="#000000" fill-opacity="1"><g transform="translate(16.61271, 8.19786)"><g><path d="M 5.296875 -4.90625 C 5.046875 -4.875 4.882812 -4.820312 4.8125 -4.75 C 4.738281 -4.675781 4.703125 -4.53125 4.703125 -4.3125 L 4.703125 0.140625 L 4.484375 0.140625 L 1.109375 -3.96875 L 1.109375 -0.9375 C 1.109375 -0.664062 1.15625 -0.476562 1.25 -0.375 C 1.34375 -0.28125 1.535156 -0.21875 1.828125 -0.1875 L 1.828125 0 L 0.125 0 L 0.125 -0.1875 C 0.394531 -0.21875 0.570312 -0.269531 0.65625 -0.34375 C 0.738281 -0.425781 0.78125 -0.578125 0.78125 -0.796875 L 0.78125 -4.375 C 0.601562 -4.582031 0.46875 -4.722656 0.375 -4.796875 C 0.289062 -4.867188 0.210938 -4.90625 0.140625 -4.90625 L 0.140625 -5.109375 L 1.734375 -5.109375 L 4.375 -1.859375 L 4.375 -4.171875 C 4.375 -4.429688 4.320312 -4.613281 4.21875 -4.71875 C 4.125 -4.820312 3.941406 -4.882812 3.671875 -4.90625 L 3.671875 -5.109375 L 5.296875 -5.109375 Z M 5.296875 -4.90625 "/></g></g></g><g fill="#000000" fill-opacity="1"><g transform="translate(22.056921, 8.19786)"><g><path d="M 2.796875 0 L 0.15625 0 L 0.15625 -0.1875 C 0.4375 -0.207031 0.625 -0.253906 0.71875 -0.328125 C 0.8125 -0.398438 0.859375 -0.53125 0.859375 -0.71875 L 0.859375 -4.375 C 0.859375 -4.5625 0.804688 -4.691406 0.703125 -4.765625 C 0.609375 -4.847656 0.425781 -4.894531 0.15625 -4.90625 L 0.15625 -5.109375 L 2.796875 -5.109375 L 2.796875 -4.90625 C 2.515625 -4.894531 2.320312 -4.851562 2.21875 -4.78125 C 2.125 -4.707031 2.078125 -4.570312 2.078125 -4.375 L 2.078125 -0.71875 C 2.078125 -0.53125 2.125 -0.398438 2.21875 -0.328125 C 2.3125 -0.253906 2.503906 -0.207031 2.796875 -0.1875 Z M 1.859375 -6.484375 C 1.972656 -6.378906 2.03125 -6.242188 2.03125 -6.078125 C 2.03125 -5.910156 1.972656 -5.769531 1.859375 -5.65625 C 1.753906 -5.550781 1.617188 -5.5 1.453125 -5.5 C 1.296875 -5.5 1.160156 -5.550781 1.046875 -5.65625 C 0.929688 -5.769531 0.875 -5.910156 0.875 -6.078125 C 0.875 -6.242188 0.929688 -6.378906 1.046875 -6.484375 C 1.160156 -6.597656 1.296875 -6.65625 1.453125 -6.65625 C 1.617188 -6.65625 1.753906 -6.597656 1.859375 -6.484375 Z M 1.859375 -6.484375 "/></g></g></g><g fill="#000000" fill-opacity="1"><g transform="translate(24.990156, 8.19786)"><g><path d="M 5.796875 0 L 3.265625 0 L 3.265625 -0.1875 C 3.335938 -0.195312 3.421875 -0.203125 3.515625 -0.203125 C 3.742188 -0.210938 3.859375 -0.257812 3.859375 -0.34375 C 3.859375 -0.414062 3.800781 -0.523438 3.6875 -0.671875 L 2.3125 -2.390625 L 2.109375 -2.203125 L 2.109375 -0.71875 C 2.109375 -0.53125 2.148438 -0.398438 2.234375 -0.328125 C 2.316406 -0.265625 2.492188 -0.21875 2.765625 -0.1875 L 2.765625 0 L 0.21875 0 L 0.21875 -0.1875 C 0.5 -0.21875 0.679688 -0.265625 0.765625 -0.328125 C 0.847656 -0.398438 0.890625 -0.53125 0.890625 -0.71875 L 0.890625 -4.375 C 0.890625 -4.570312 0.84375 -4.707031 0.75 -4.78125 C 0.664062 -4.851562 0.488281 -4.894531 0.21875 -4.90625 L 0.21875 -5.109375 L 2.78125 -5.109375 L 2.78125 -4.90625 C 2.5 -4.894531 2.316406 -4.84375 2.234375 -4.75 C 2.148438 -4.664062 2.109375 -4.488281 2.109375 -4.21875 L 2.109375 -2.609375 L 3.75 -4.25 C 3.863281 -4.363281 3.9375 -4.445312 3.96875 -4.5 C 4 -4.550781 4.015625 -4.601562 4.015625 -4.65625 C 4.015625 -4.738281 3.984375 -4.796875 3.921875 -4.828125 C 3.867188 -4.867188 3.773438 -4.890625 3.640625 -4.890625 C 3.609375 -4.890625 3.519531 -4.894531 3.375 -4.90625 L 3.375 -5.109375 L 5.546875 -5.109375 L 5.546875 -4.90625 C 5.179688 -4.882812 4.863281 -4.773438 4.59375 -4.578125 C 4.332031 -4.390625 3.84375 -3.929688 3.125 -3.203125 L 5.4375 -0.34375 C 5.519531 -0.25 5.640625 -0.195312 5.796875 -0.1875 Z M 5.796875 0 "/></g></g></g><g clip-path="url(#246e8a3e2b)"><g fill="#000000" fill-opacity="1"><g transform="translate(30.441903, 8.19786)"><g><path d="M 5.609375 -2.53125 C 5.609375 -1.75 5.359375 -1.109375 4.859375 -0.609375 C 4.359375 -0.109375 3.71875 0.140625 2.9375 0.140625 C 2.15625 0.140625 1.515625 -0.109375 1.015625 -0.609375 C 0.515625 -1.109375 0.265625 -1.75 0.265625 -2.53125 C 0.265625 -3.3125 0.515625 -3.953125 1.015625 -4.453125 C 1.523438 -4.960938 2.175781 -5.21875 2.96875 -5.21875 C 3.726562 -5.21875 4.359375 -4.960938 4.859375 -4.453125 C 5.359375 -3.941406 5.609375 -3.300781 5.609375 -2.53125 Z M 4.265625 -2.484375 C 4.265625 -3.265625 4.148438 -3.875 3.921875 -4.3125 C 3.691406 -4.75 3.367188 -4.96875 2.953125 -4.96875 C 2.515625 -4.96875 2.175781 -4.753906 1.9375 -4.328125 C 1.707031 -3.898438 1.59375 -3.273438 1.59375 -2.453125 C 1.59375 -1.691406 1.707031 -1.109375 1.9375 -0.703125 C 2.164062 -0.304688 2.492188 -0.109375 2.921875 -0.109375 C 3.359375 -0.109375 3.691406 -0.3125 3.921875 -0.71875 C 4.148438 -1.125 4.265625 -1.710938 4.265625 -2.484375 Z M 4.265625 -2.484375 "/></g></g></g></g></g></g></svg>