<svg xmlns="http://www.w3.org/2000/svg" xmlns:xlink="http://www.w3.org/1999/xlink" width="100" zoomAndPan="magnify" viewBox="0 0 75 74.999997" height="100" preserveAspectRatio="xMidYMid meet" version="1.0"><defs><g/><clipPath id="9056823551"><path d="M 16.808594 39.316406 L 58.058594 39.316406 L 58.058594 44.566406 L 16.808594 44.566406 Z M 16.808594 39.316406 " clip-rule="nonzero"/></clipPath><clipPath id="d30925e3a8"><path d="M 0.679688 2 L 6 2 L 6 8 L 0.679688 8 Z M 0.679688 2 " clip-rule="nonzero"/></clipPath><clipPath id="0b1500aed4"><path d="M 30 2 L 36.679688 2 L 36.679688 9 L 30 9 Z M 30 2 " clip-rule="nonzero"/></clipPath><clipPath id="c43866d824"><rect x="0" width="37" y="0" height="12"/></clipPath></defs><g clip-path="url(#9056823551)"><path fill="#ffffff" d="M 57.425781 39.558594 C 55.910156 39.402344 54.386719 39.324219 52.859375 39.324219 L 39.402344 39.324219 L 39.402344 39.953125 C 39.363281 40.175781 39.289062 40.386719 39.175781 40.585938 C 39.0625 40.785156 38.921875 40.957031 38.746094 41.105469 C 38.574219 41.25 38.378906 41.363281 38.164062 41.441406 C 37.953125 41.519531 37.730469 41.558594 37.503906 41.558594 C 37.277344 41.558594 37.054688 41.519531 36.839844 41.441406 C 36.625 41.363281 36.433594 41.25 36.257812 41.105469 C 36.085938 40.957031 35.941406 40.785156 35.828125 40.585938 C 35.71875 40.386719 35.640625 40.175781 35.605469 39.953125 L 35.605469 39.324219 L 22.148438 39.324219 C 20.621094 39.324219 19.097656 39.402344 17.578125 39.558594 L 16.808594 39.636719 L 17.578125 39.71875 C 19.097656 39.871094 20.621094 39.949219 22.148438 39.949219 L 27.5625 39.949219 L 27.5625 40.441406 L 28.074219 40.441406 C 28.117188 40.585938 28.171875 40.726562 28.25 40.859375 L 27.886719 41.21875 L 28.582031 41.914062 L 28.941406 41.550781 C 29.074219 41.628906 29.214844 41.6875 29.359375 41.726562 L 29.359375 42.238281 L 30.34375 42.238281 L 30.34375 41.726562 C 30.492188 41.6875 30.628906 41.628906 30.761719 41.550781 L 31.125 41.914062 L 31.816406 41.21875 L 31.457031 40.859375 C 31.53125 40.726562 31.589844 40.585938 31.628906 40.441406 L 32.140625 40.441406 L 32.140625 39.949219 L 32.921875 39.949219 L 32.921875 40.617188 L 33.945312 40.617188 C 34.023438 40.910156 34.140625 41.191406 34.292969 41.453125 L 33.566406 42.179688 L 34.957031 43.574219 L 35.679688 42.847656 C 35.945312 43 36.222656 43.113281 36.515625 43.195312 L 36.515625 44.21875 L 38.484375 44.21875 L 38.484375 43.195312 C 38.777344 43.113281 39.054688 42.996094 39.316406 42.847656 L 40.042969 43.570312 L 41.429688 42.179688 L 40.707031 41.457031 C 40.859375 41.191406 40.972656 40.914062 41.054688 40.621094 L 42.078125 40.621094 L 42.078125 39.953125 L 42.859375 39.953125 L 42.859375 40.445312 L 43.371094 40.445312 C 43.410156 40.589844 43.46875 40.730469 43.542969 40.859375 L 43.179688 41.222656 L 43.875 41.917969 L 44.238281 41.554688 C 44.371094 41.628906 44.507812 41.6875 44.65625 41.730469 L 44.65625 42.242188 L 45.640625 42.242188 L 45.640625 41.730469 C 45.785156 41.6875 45.925781 41.628906 46.054688 41.554688 L 46.417969 41.917969 L 47.113281 41.222656 L 46.75 40.859375 C 46.824219 40.730469 46.882812 40.589844 46.925781 40.445312 L 47.4375 40.445312 L 47.4375 39.953125 L 52.851562 39.953125 C 54.378906 39.953125 55.902344 39.875 57.421875 39.71875 L 58.191406 39.640625 Z M 29.851562 40.914062 C 29.585938 40.914062 29.359375 40.820312 29.171875 40.632812 C 28.984375 40.445312 28.890625 40.21875 28.890625 39.953125 L 30.816406 39.953125 C 30.816406 40.21875 30.722656 40.445312 30.535156 40.632812 C 30.347656 40.820312 30.117188 40.914062 29.851562 40.914062 Z M 45.152344 40.914062 C 44.886719 40.914062 44.660156 40.820312 44.472656 40.632812 C 44.285156 40.445312 44.191406 40.21875 44.191406 39.953125 L 46.117188 39.953125 C 46.117188 40.21875 46.019531 40.445312 45.832031 40.632812 C 45.644531 40.820312 45.417969 40.914062 45.152344 40.914062 Z M 45.152344 40.914062 " fill-opacity="1" fill-rule="nonzero"/></g><g transform="matrix(1, 0, 0, 1, 19, 29)"><g clip-path="url(#c43866d824)"><g clip-path="url(#d30925e3a8)"><g fill="#ffffff" fill-opacity="1"><g transform="translate(0.687267, 7.927928)"><g><path d="M 4.796875 -3.578125 L 4.578125 -3.578125 C 4.515625 -4.023438 4.375 -4.347656 4.15625 -4.546875 C 3.9375 -4.742188 3.59375 -4.847656 3.125 -4.859375 L 3.125 -0.890625 C 3.125 -0.597656 3.164062 -0.410156 3.25 -0.328125 C 3.332031 -0.253906 3.539062 -0.207031 3.875 -0.1875 L 3.875 0 L 1.171875 0 L 1.171875 -0.1875 C 1.492188 -0.207031 1.695312 -0.253906 1.78125 -0.328125 C 1.863281 -0.410156 1.90625 -0.597656 1.90625 -0.890625 L 1.90625 -4.859375 C 1.4375 -4.847656 1.09375 -4.742188 0.875 -4.546875 C 0.65625 -4.347656 0.515625 -4.023438 0.453125 -3.578125 L 0.234375 -3.578125 L 0.25 -5.109375 L 4.78125 -5.109375 Z M 4.796875 -3.578125 "/></g></g></g></g><g fill="#ffffff" fill-opacity="1"><g transform="translate(5.716753, 7.927928)"><g><path d="M 4.84375 -1.5625 L 4.53125 0 L 0.125 0 L 0.125 -0.1875 C 0.40625 -0.21875 0.582031 -0.265625 0.65625 -0.328125 C 0.738281 -0.398438 0.78125 -0.53125 0.78125 -0.71875 L 0.78125 -4.375 C 0.78125 -4.5625 0.734375 -4.691406 0.640625 -4.765625 C 0.554688 -4.847656 0.382812 -4.894531 0.125 -4.90625 L 0.125 -5.109375 L 4.46875 -5.109375 L 4.46875 -3.578125 L 4.28125 -3.578125 C 4.1875 -4.085938 4.019531 -4.425781 3.78125 -4.59375 C 3.539062 -4.757812 3.113281 -4.84375 2.5 -4.84375 C 2.300781 -4.84375 2.164062 -4.816406 2.09375 -4.765625 C 2.03125 -4.722656 2 -4.628906 2 -4.484375 L 2 -2.734375 C 2.414062 -2.734375 2.707031 -2.8125 2.875 -2.96875 C 3.050781 -3.132812 3.171875 -3.429688 3.234375 -3.859375 L 3.421875 -3.859375 L 3.421875 -1.3125 L 3.234375 -1.3125 C 3.179688 -1.75 3.066406 -2.050781 2.890625 -2.21875 C 2.710938 -2.394531 2.414062 -2.484375 2 -2.484375 L 2 -0.65625 C 2 -0.5 2.039062 -0.390625 2.125 -0.328125 C 2.21875 -0.265625 2.390625 -0.234375 2.640625 -0.234375 C 3.203125 -0.234375 3.65625 -0.375 4 -0.65625 C 4.226562 -0.84375 4.4375 -1.144531 4.625 -1.5625 Z M 4.84375 -1.5625 "/></g></g></g><g fill="#ffffff" fill-opacity="1"><g transform="translate(10.746239, 7.927928)"><g><path d="M 5.796875 0 L 3.265625 0 L 3.265625 -0.1875 C 3.335938 -0.195312 3.421875 -0.203125 3.515625 -0.203125 C 3.742188 -0.210938 3.859375 -0.257812 3.859375 -0.34375 C 3.859375 -0.414062 3.800781 -0.523438 3.6875 -0.671875 L 2.3125 -2.390625 L 2.109375 -2.203125 L 2.109375 -0.71875 C 2.109375 -0.53125 2.148438 -0.398438 2.234375 -0.328125 C 2.316406 -0.265625 2.492188 -0.21875 2.765625 -0.1875 L 2.765625 0 L 0.21875 0 L 0.21875 -0.1875 C 0.5 -0.21875 0.679688 -0.265625 0.765625 -0.328125 C 0.847656 -0.398438 0.890625 -0.53125 0.890625 -0.71875 L 0.890625 -4.375 C 0.890625 -4.570312 0.84375 -4.707031 0.75 -4.78125 C 0.664062 -4.851562 0.488281 -4.894531 0.21875 -4.90625 L 0.21875 -5.109375 L 2.78125 -5.109375 L 2.78125 -4.90625 C 2.5 -4.894531 2.316406 -4.84375 2.234375 -4.75 C 2.148438 -4.664062 2.109375 -4.488281 2.109375 -4.21875 L 2.109375 -2.609375 L 3.75 -4.25 C 3.863281 -4.363281 3.9375 -4.445312 3.96875 -4.5 C 4 -4.550781 4.015625 -4.601562 4.015625 -4.65625 C 4.015625 -4.738281 3.984375 -4.796875 3.921875 -4.828125 C 3.867188 -4.867188 3.773438 -4.890625 3.640625 -4.890625 C 3.609375 -4.890625 3.519531 -4.894531 3.375 -4.90625 L 3.375 -5.109375 L 5.546875 -5.109375 L 5.546875 -4.90625 C 5.179688 -4.882812 4.863281 -4.773438 4.59375 -4.578125 C 4.332031 -4.390625 3.84375 -3.929688 3.125 -3.203125 L 5.4375 -0.34375 C 5.519531 -0.25 5.640625 -0.195312 5.796875 -0.1875 Z M 5.796875 0 "/></g></g></g><g fill="#ffffff" fill-opacity="1"><g transform="translate(16.61271, 7.927928)"><g><path d="M 5.296875 -4.90625 C 5.046875 -4.875 4.882812 -4.820312 4.8125 -4.75 C 4.738281 -4.675781 4.703125 -4.53125 4.703125 -4.3125 L 4.703125 0.140625 L 4.484375 0.140625 L 1.109375 -3.96875 L 1.109375 -0.9375 C 1.109375 -0.664062 1.15625 -0.476562 1.25 -0.375 C 1.34375 -0.28125 1.535156 -0.21875 1.828125 -0.1875 L 1.828125 0 L 0.125 0 L 0.125 -0.1875 C 0.394531 -0.21875 0.570312 -0.269531 0.65625 -0.34375 C 0.738281 -0.425781 0.78125 -0.578125 0.78125 -0.796875 L 0.78125 -4.375 C 0.601562 -4.582031 0.46875 -4.722656 0.375 -4.796875 C 0.289062 -4.867188 0.210938 -4.90625 0.140625 -4.90625 L 0.140625 -5.109375 L 1.734375 -5.109375 L 4.375 -1.859375 L 4.375 -4.171875 C 4.375 -4.429688 4.320312 -4.613281 4.21875 -4.71875 C 4.125 -4.820312 3.941406 -4.882812 3.671875 -4.90625 L 3.671875 -5.109375 L 5.296875 -5.109375 Z M 5.296875 -4.90625 "/></g></g></g><g fill="#ffffff" fill-opacity="1"><g transform="translate(22.056921, 7.927928)"><g><path d="M 2.796875 0 L 0.15625 0 L 0.15625 -0.1875 C 0.4375 -0.207031 0.625 -0.253906 0.71875 -0.328125 C 0.8125 -0.398438 0.859375 -0.53125 0.859375 -0.71875 L 0.859375 -4.375 C 0.859375 -4.5625 0.804688 -4.691406 0.703125 -4.765625 C 0.609375 -4.847656 0.425781 -4.894531 0.15625 -4.90625 L 0.15625 -5.109375 L 2.796875 -5.109375 L 2.796875 -4.90625 C 2.515625 -4.894531 2.320312 -4.851562 2.21875 -4.78125 C 2.125 -4.707031 2.078125 -4.570312 2.078125 -4.375 L 2.078125 -0.71875 C 2.078125 -0.53125 2.125 -0.398438 2.21875 -0.328125 C 2.3125 -0.253906 2.503906 -0.207031 2.796875 -0.1875 Z M 1.859375 -6.484375 C 1.972656 -6.378906 2.03125 -6.242188 2.03125 -6.078125 C 2.03125 -5.910156 1.972656 -5.769531 1.859375 -5.65625 C 1.753906 -5.550781 1.617188 -5.5 1.453125 -5.5 C 1.296875 -5.5 1.160156 -5.550781 1.046875 -5.65625 C 0.929688 -5.769531 0.875 -5.910156 0.875 -6.078125 C 0.875 -6.242188 0.929688 -6.378906 1.046875 -6.484375 C 1.160156 -6.597656 1.296875 -6.65625 1.453125 -6.65625 C 1.617188 -6.65625 1.753906 -6.597656 1.859375 -6.484375 Z M 1.859375 -6.484375 "/></g></g></g><g fill="#ffffff" fill-opacity="1"><g transform="translate(24.990156, 7.927928)"><g><path d="M 5.796875 0 L 3.265625 0 L 3.265625 -0.1875 C 3.335938 -0.195312 3.421875 -0.203125 3.515625 -0.203125 C 3.742188 -0.210938 3.859375 -0.257812 3.859375 -0.34375 C 3.859375 -0.414062 3.800781 -0.523438 3.6875 -0.671875 L 2.3125 -2.390625 L 2.109375 -2.203125 L 2.109375 -0.71875 C 2.109375 -0.53125 2.148438 -0.398438 2.234375 -0.328125 C 2.316406 -0.265625 2.492188 -0.21875 2.765625 -0.1875 L 2.765625 0 L 0.21875 0 L 0.21875 -0.1875 C 0.5 -0.21875 0.679688 -0.265625 0.765625 -0.328125 C 0.847656 -0.398438 0.890625 -0.53125 0.890625 -0.71875 L 0.890625 -4.375 C 0.890625 -4.570312 0.84375 -4.707031 0.75 -4.78125 C 0.664062 -4.851562 0.488281 -4.894531 0.21875 -4.90625 L 0.21875 -5.109375 L 2.78125 -5.109375 L 2.78125 -4.90625 C 2.5 -4.894531 2.316406 -4.84375 2.234375 -4.75 C 2.148438 -4.664062 2.109375 -4.488281 2.109375 -4.21875 L 2.109375 -2.609375 L 3.75 -4.25 C 3.863281 -4.363281 3.9375 -4.445312 3.96875 -4.5 C 4 -4.550781 4.015625 -4.601562 4.015625 -4.65625 C 4.015625 -4.738281 3.984375 -4.796875 3.921875 -4.828125 C 3.867188 -4.867188 3.773438 -4.890625 3.640625 -4.890625 C 3.609375 -4.890625 3.519531 -4.894531 3.375 -4.90625 L 3.375 -5.109375 L 5.546875 -5.109375 L 5.546875 -4.90625 C 5.179688 -4.882812 4.863281 -4.773438 4.59375 -4.578125 C 4.332031 -4.390625 3.84375 -3.929688 3.125 -3.203125 L 5.4375 -0.34375 C 5.519531 -0.25 5.640625 -0.195312 5.796875 -0.1875 Z M 5.796875 0 "/></g></g></g><g clip-path="url(#0b1500aed4)"><g fill="#ffffff" fill-opacity="1"><g transform="translate(30.441903, 7.927928)"><g><path d="M 5.609375 -2.53125 C 5.609375 -1.75 5.359375 -1.109375 4.859375 -0.609375 C 4.359375 -0.109375 3.71875 0.140625 2.9375 0.140625 C 2.15625 0.140625 1.515625 -0.109375 1.015625 -0.609375 C 0.515625 -1.109375 0.265625 -1.75 0.265625 -2.53125 C 0.265625 -3.3125 0.515625 -3.953125 1.015625 -4.453125 C 1.523438 -4.960938 2.175781 -5.21875 2.96875 -5.21875 C 3.726562 -5.21875 4.359375 -4.960938 4.859375 -4.453125 C 5.359375 -3.941406 5.609375 -3.300781 5.609375 -2.53125 Z M 4.265625 -2.484375 C 4.265625 -3.265625 4.148438 -3.875 3.921875 -4.3125 C 3.691406 -4.75 3.367188 -4.96875 2.953125 -4.96875 C 2.515625 -4.96875 2.175781 -4.753906 1.9375 -4.328125 C 1.707031 -3.898438 1.59375 -3.273438 1.59375 -2.453125 C 1.59375 -1.691406 1.707031 -1.109375 1.9375 -0.703125 C 2.164062 -0.304688 2.492188 -0.109375 2.921875 -0.109375 C 3.359375 -0.109375 3.691406 -0.3125 3.921875 -0.71875 C 4.148438 -1.125 4.265625 -1.710938 4.265625 -2.484375 Z M 4.265625 -2.484375 "/></g></g></g></g></g></g></svg>